<?xml version="1.0" standalone="no"?>
<!DOCTYPE svg PUBLIC "-//W3C//DTD SVG 1.1//EN" "http://www.w3.org/Graphics/SVG/1.1/DTD/svg11.dtd" >
<svg xmlns="http://www.w3.org/2000/svg">
<metadata></metadata>
<defs>
<font id="questrialregular" horiz-adv-x="1126" >
<font-face units-per-em="2048" ascent="1638" descent="-410" />
<missing-glyph horiz-adv-x="436" />
<glyph horiz-adv-x="2048" />
<glyph horiz-adv-x="2048" />
<glyph unicode="&#xd;" horiz-adv-x="681" />
<glyph unicode=" "  horiz-adv-x="436" />
<glyph unicode="&#x09;" horiz-adv-x="436" />
<glyph unicode="&#xa0;" horiz-adv-x="436" />
<glyph unicode="!" horiz-adv-x="452" d="M127 0v209h199v-209h-199zM131 1356h191l-39 -981h-113z" />
<glyph unicode="&#x22;" horiz-adv-x="649" d="M96 1356h183l-39 -449h-105zM371 1356h182l-39 -449h-104z" />
<glyph unicode="#" horiz-adv-x="1189" d="M92 344v133h230l40 295h-208v133h227l43 293h133l-43 -293h238l43 293h133l-43 -293h213v-133h-232l-41 -295h211v-133h-229l-41 -293h-133l41 293h-238l-41 -293h-133l41 293h-211zM455 477h237l41 295h-237z" />
<glyph unicode="$" horiz-adv-x="1302" d="M88 406h160q4 -123 108 -197q92 -66 254 -78v498q-225 51 -311 104t-128 113.5t-42 150.5q0 162 120 265.5t361 109.5v156h76v-158q236 -12 363 -125q119 -106 127 -260h-158q-12 96 -91 164t-241 78v-467q94 -23 187.5 -49.5t166.5 -69.5q170 -96 170 -275.5 t-139 -278.5t-385 -103v-203h-76v205q-377 18 -483 260q-33 74 -39 160zM279 991q0 -39 26.5 -73.5t71.5 -59.5q78 -41 233 -80v451q-188 -8 -270 -86q-61 -56 -61 -152zM686 129q172 0 271.5 59.5t99.5 180.5q0 137 -230 204q-68 18 -141 37v-481z" />
<glyph unicode="%" horiz-adv-x="1730" d="M86 977.5q0 191.5 82 290t231.5 96.5t225 -113.5t75.5 -288t-82.5 -274.5t-225 -98t-224.5 98t-82 289.5zM211 977q0 -135 48 -202.5t134 -67.5q137 6 172 176q8 47 8 94q0 135 -48 202.5t-133 67.5t-133 -67.5t-48 -202.5zM330 -25l940 1397h129l-940 -1397h-129z M1030 371.5q0 191.5 82 290t231.5 96.5t225.5 -114t76 -288t-83 -274t-225.5 -98t-224.5 98t-82 289.5zM1155 371q0 -135 48 -203t134 -68q137 6 170 176q10 47 11 95q0 135 -48.5 202.5t-133.5 67.5t-133 -67.5t-48 -202.5z" />
<glyph unicode="&#x26;" horiz-adv-x="1187" d="M76 389q0 111 65.5 197t184.5 131q-76 23 -138 102q-68 90 -67.5 176t29 154t86 117t141.5 77.5t191.5 28.5t183 -24.5t129.5 -65.5q96 -74 120 -192h-161q-16 49 -84 96t-166 47t-153.5 -18.5t-92.5 -51.5q-70 -61 -70 -164q0 -111 80 -172q72 -53 187 -53h329v90h144 v-90h133v-137h-133v-260q0 -176 -123 -283q-125 -111 -340 -110q-195 0 -334 112q-141 115 -141 293zM229 385q0 -106 90 -184q90 -80 232 -80q152 0 240 76q80 66 79 168v272h-348q-125 0 -211 -76q-82 -70 -82 -176z" />
<glyph unicode="'" horiz-adv-x="374" d="M96 1356h183l-39 -449h-105z" />
<glyph unicode="(" horiz-adv-x="501" d="M72 575.5q0 450.5 262 858.5h139q-246 -397 -246 -860t246 -857h-139q-262 408 -262 858.5z" />
<glyph unicode=")" horiz-adv-x="501" d="M29 -283q246 393 245.5 856t-245.5 861h139q262 -408 262 -858.5t-262 -858.5h-139z" />
<glyph unicode="*" horiz-adv-x="763" d="M98 1102l39 123l205 -92l-25 223h129l-24 -223l205 92l39 -123l-220 -45l152 -168l-104 -76l-111 195l-113 -195l-104 76l151 166z" />
<glyph unicode="+" d="M102 416v133h394v416h133v-416h395v-133h-395v-416h-133v416h-394z" />
<glyph unicode="," horiz-adv-x="450" d="M23 -272l118 436h201l-180 -436h-139z" />
<glyph unicode="-" horiz-adv-x="729" d="M109 530v150h512v-150h-512z" />
<glyph unicode="." horiz-adv-x="415" d="M109 0v209h198v-209h-198z" />
<glyph unicode="/" horiz-adv-x="759" d="M74 -66l469 1459h143l-469 -1459h-143z" />
<glyph unicode="0" d="M88 678q0 694 475 694q258 -4 379 -217q96 -172 96 -477q0 -694 -475 -694t-475 694zM242 678q0 -274 75.5 -409.5t245.5 -135.5q270 6 309 354q12 96 13 191q0 274 -76 409.5t-246 135.5t-245.5 -135.5t-75.5 -409.5z" />
<glyph unicode="1" d="M276 1208v148h441v-1356h-154v1208h-287z" />
<glyph unicode="2" d="M88 987q16 172 150 279q133 106 321 106q215 0 342 -115q121 -110 121 -290q0 -88 -52 -170t-132 -154t-173.5 -135.5t-175 -123.5t-138 -118.5t-62.5 -118.5h729v-147h-912v84q0 100 56.5 183t141.5 156t183.5 137.5t183.5 130t141 133t56 145.5q0 119 -78.5 186.5 t-220 67.5t-226.5 -60.5t-101 -175.5h-154z" />
<glyph unicode="3" d="M84 358h156q16 -94 108 -159q94 -66 219 -66q141 0 228 74q80 70 79 178q0 106 -81 180q-86 78 -211 78h-156v141h137q106 0 187 62q80 61 79.5 159.5t-68 158t-197.5 59.5t-204.5 -57.5t-89.5 -135.5h-149q14 135 125 234q123 109 309 108q197 0 313 -102 q115 -98 115 -258q0 -94 -70 -185q-61 -84 -135 -104q119 -45 184.5 -134t65.5 -189.5t-36 -175t-99 -128.5q-131 -113 -326 -112q-193 0 -329 108q-137 111 -154 266z" />
<glyph unicode="4" d="M63 346v150l570 860h231v-873h183v-137h-183v-346h-153v346h-648zM207 483h504v742z" />
<glyph unicode="5" d="M86 340h158q47 -139 192 -188q55 -18 128 -18.5t129.5 23t97.5 64.5q84 88 83 213q0 133 -83 217q-84 84 -220 84q-92 0 -162.5 -33.5t-105.5 -74.5l-141 86l92 643h707v-148h-568l-61 -393q104 63 223 63.5t203 -32.5t143 -92q127 -123 127 -320q0 -188 -131 -319 t-324 -131q-233 0 -364 127q-96 92 -123 229z" />
<glyph unicode="6" d="M88 678q0 502 289 645q96 49 209.5 49t185.5 -28.5t121 -75.5q98 -90 125 -228h-172q-57 182 -244 183q-180 0 -274 -162q-86 -143 -86 -389q49 86 144 139t200.5 53t189.5 -32.5t146 -90.5q135 -127 135 -317q0 -186 -137 -315q-133 -125 -330 -125q-248 0 -375 179 t-127 515zM276 434q0 -131 93 -217q86 -84 221 -84q131 0 221 82q92 84 92 209t-92 211q-92 84 -221 84q-66 0 -122 -20.5t-99 -59.5q-92 -80 -93 -205z" />
<glyph unicode="7" d="M96 1208v148h940v-174l-565 -1182h-178l586 1208h-783z" />
<glyph unicode="8" d="M78 389q0 117 69.5 213t190.5 143q-78 29 -137 95q-70 80 -70 190q0 154 110.5 248t321.5 94t321.5 -94t110.5 -248q0 -162 -137 -248q-37 -25 -70 -37q121 -47 191 -143t70 -199.5t-33 -178t-94 -128.5q-129 -113 -359 -112q-229 0 -358 112q-127 111 -127 293z M231.5 394q-0.5 -124 88.5 -193.5t243 -69.5t243 69.5t89 190.5q0 127 -98 207q-92 72 -234 72q-141 0 -233 -72q-98 -80 -98.5 -204zM285 1020q0 -100 84.5 -154.5t193.5 -54.5t187 49q92 59 92 159.5t-78 153t-201 52.5t-200.5 -52.5t-77.5 -152.5z" />
<glyph unicode="9" d="M70 932q0 186 137 315q133 125 330 125q248 0 374.5 -179t126.5 -515q0 -502 -288 -645q-96 -49 -210 -49t-185.5 28.5t-121.5 75.5q-98 90 -124 227h172q57 -182 243 -182q180 0 275 162q86 143 86 389q-49 -86 -144.5 -139t-201 -53t-189.5 32.5t-145 89.5 q-135 127 -135 318zM223 932q0 -125 92 -211q93 -84 222 -84q63 0 120.5 20.5t100.5 59.5q92 80 92 205q0 131 -92 217q-86 84 -221 84q-131 0 -222 -82q-92 -84 -92 -209z" />
<glyph unicode=":" horiz-adv-x="415" d="M109 0v209h198v-209h-198zM109 815v209h198v-209h-198z" />
<glyph unicode=";" horiz-adv-x="501" d="M51 -272l119 436h201l-181 -436h-139zM164 815v209h198v-209h-198z" />
<glyph unicode="&#x3c;" d="M53 451v129l985 436v-160l-829 -340l829 -340v-160z" />
<glyph unicode="=" d="M117 211v137h893v-137h-893zM117 616v138h893v-138h-893z" />
<glyph unicode="&#x3e;" d="M86 16v160l829 340l-829 340v160l985 -436v-129z" />
<glyph unicode="?" horiz-adv-x="1054" d="M80 954q8 174 129 293q129 125 323 125q209 0 320 -115q100 -104 100 -262q0 -74 -24.5 -131t-62.5 -103t-82 -85t-83 -82q-86 -98 -86 -219h-149q0 190 170 346q104 92 138 154.5t34 113.5t-12.5 91t-42.5 75q-70 76 -207 76q-141 0 -230 -84q-82 -78 -90 -193h-145z M440 0v209h199v-209h-199z" />
<glyph unicode="@" horiz-adv-x="1744" d="M102 605.5q0 154.5 69 309t186.5 272.5t273 188.5t311.5 70.5t283 -53.5t223 -146.5t153.5 -219t57.5 -265t-33 -233.5t-86 -155.5q-104 -121 -262 -121q-119 0 -164 72q-23 31 -27 71q-117 -143 -296 -143q-168 0 -263 96q-86 92 -86 244q0 221 136 360 q133 137 327.5 137.5t270.5 -143.5l20 131h123l-96 -598q-2 -4 -2 -8v-18q0 -109 110.5 -109t181 96.5t70.5 304.5q0 262 -182 445q-180 180 -443 180q-154 0 -295 -62.5t-248.5 -169t-172 -247.5t-64.5 -286.5t48 -258.5t134 -194q180 -178 444.5 -178.5t448.5 151.5 l45 -62q-209 -166 -495 -165q-154 0 -283 55t-221 150.5t-144.5 221.5t-52.5 280.5zM565 604q0 -104 63.5 -173t202 -69t225.5 108.5t87 262.5q0 104 -60 176q-61 72 -176 72q-152 0 -245 -102q-96 -104 -97 -275z" />
<glyph unicode="A" horiz-adv-x="1355" d="M6 0l576 1356h192l576 -1356h-170l-166 393h-672l-166 -393h-170zM401 535h553l-276 661z" />
<glyph unicode="B" horiz-adv-x="1355" d="M166 0v1356h608q219 0 334 -119q94 -95 94 -240q0 -223 -182 -305q168 -55 229 -203q23 -57 23 -133q0 -246 -260 -327q-86 -29 -203 -29h-643zM319 145h506q141 0 217 58.5t76 165.5q0 102 -74 168q-81 73 -231 73h-4h-490v-465zM319 750h455q188 0 252 129q23 45 23 97 t-14.5 92t-45.5 71q-67 71 -194 71h-4h-472v-460z" />
<glyph unicode="C" horiz-adv-x="1413" d="M80 678q0 297 174 491q184 203 481 203q225 0 391 -119q156 -111 224 -303h-162q-53 125 -163 199t-255 74t-241.5 -42t-161.5 -116q-133 -150 -134 -387q0 -238 134 -387q139 -158 403 -158q145 0 255 74t163 199h162q-68 -193 -224 -304q-165 -118 -387 -118h-4 q-297 0 -481 202q-174 195 -174 492z" />
<glyph unicode="D" horiz-adv-x="1441" d="M166 0v1356h571q121 0 233.5 -46t198.5 -134q190 -195 191 -498q0 -303 -191 -498q-86 -88 -198.5 -134t-233.5 -46h-571zM319 145h412q213 0 346 158q129 152 129 375t-129 375q-132 157 -343 157h-3h-412v-1065z" />
<glyph unicode="E" horiz-adv-x="1245" d="M166 0v1356h997v-148h-844v-454h754v-150h-754v-457h844v-147h-997z" />
<glyph unicode="F" horiz-adv-x="1193" d="M166 0v1356h979v-148h-826v-471h736v-149h-736v-588h-153z" />
<glyph unicode="G" horiz-adv-x="1480" d="M80 678q0 295 182 491q86 95 209 149t254 54t227.5 -28.5t173.5 -77.5q162 -104 238 -279h-168q-61 111 -171 173.5t-249 62.5t-237.5 -42t-165.5 -116q-139 -152 -140 -387q0 -238 138 -387q145 -158 385 -158q193 0 331 119q147 125 148 330h-496v139h637v-721h-141 v240q-117 -176 -324 -236q-76 -20 -199.5 -20t-246.5 54t-209 148q-176 193 -176 492z" />
<glyph unicode="H" horiz-adv-x="1427" d="M166 0v1356h153v-602h789v602h154v-1356h-154v604h-789v-604h-153z" />
<glyph unicode="I" horiz-adv-x="485" d="M166 0v1356h153v-1356h-153z" />
<glyph unicode="J" horiz-adv-x="1079" d="M31 362h159q14 -90 84 -153q82 -76 218 -76q164 0 233 109q47 76 47 213v901h154v-907q0 -197 -99 -322q-115 -143 -344 -143q-207 0 -329 118q-109 109 -123 260z" />
<glyph unicode="K" horiz-adv-x="1312" d="M166 0v1356h153v-707l754 707h217l-577 -545l610 -811h-193l-530 707l-281 -263v-444h-153z" />
<glyph unicode="L" horiz-adv-x="1091" d="M166 0v1356h153v-1209h740v-147h-893z" />
<glyph unicode="M" horiz-adv-x="1650" d="M166 0v1356h178l485 -643l478 643h178v-1356h-154v1122l-502 -645l-510 645v-1122h-153z" />
<glyph unicode="N" horiz-adv-x="1501" d="M166 0v1356h178l838 -1141v1141h153v-1356h-178l-838 1145v-1145h-153z" />
<glyph unicode="O" horiz-adv-x="1536" d="M80 678q0 295 190 491q195 203 498 203t498 -203q190 -197 190 -491.5t-190 -491.5q-194 -202 -495 -202h-3q-303 0 -498 202q-190 197 -190 492zM233 678q0 -236 144 -387q149 -158 391 -158t391 158q143 152 144 387q0 236 -144 387q-150 158 -391 158 q-242 0 -391 -158q-143 -152 -144 -387z" />
<glyph unicode="P" horiz-adv-x="1286" d="M166 0v1356h610q215 0 342 -119q125 -119 125 -317q0 -201 -126 -319t-341 -118h-457v-483h-153zM319 627h447q160 0 242 77.5t82 214t-82 214t-242 77.5h-447v-583z" />
<glyph unicode="Q" horiz-adv-x="1536" d="M80 678q0 295 190 491q195 203 498 203t498 -203q190 -197 190 -491q0 -258 -156 -449q-156 -193 -405 -233q59 -119 203 -168q53 -18 125 -18q133 0 247 92l82 -111q-141 -113 -331 -113q-152 0 -283 84t-199 224q-293 12 -477 211q-182 193 -182 481zM233 678 q0 -236 144 -387q149 -158 391 -158t391 158q143 152 144 387q0 236 -144 387q-150 158 -391 158q-242 0 -391 -158q-143 -152 -144 -387z" />
<glyph unicode="R" horiz-adv-x="1370" d="M166 0v1356h649q207 0 332 -115q125 -113 125 -309q0 -254 -211 -346q-59 -27 -117 -39l356 -547h-182l-327 520h-472v-520h-153zM319 666h469q217 0 299 135q31 51 31 131q0 129 -88 203.5t-233 74.5h-478v-544z" />
<glyph unicode="S" horiz-adv-x="1259" d="M66 406h159q8 -139 135 -213q111 -63 293 -64q381 0 381 240q0 82 -68.5 129t-172 77.5t-223 57t-223 68.5t-172.5 111t-69 185q0 166 127 270.5t383 104.5q258 0 400 -119q129 -104 137 -268h-158q-20 168 -217 223q-70 20 -173 20q-2 0 -4 1q-100 1 -170 -23 q-71 -24 -109.5 -58t-52 -75t-13.5 -87t40 -85t105.5 -65.5t149.5 -47t171 -42t171 -49t149 -70.5q145 -92 146 -252q0 -190 -142.5 -290.5t-394.5 -100.5q-285 0 -434 118q-133 106 -151 304z" />
<glyph unicode="T" horiz-adv-x="1157" d="M29 1208v148h1099v-148h-473v-1208h-153v1208h-473z" />
<glyph unicode="U" horiz-adv-x="1452" d="M150 584v772h153v-776q0 -219 131 -342q113 -104 291 -105q178 0 293 105q131 121 131 342v776h154v-772q0 -270 -161 -435t-417 -165q-254 0 -414.5 164.5t-160.5 435.5z" />
<glyph unicode="V" horiz-adv-x="1286" d="M6 1356h168l469 -1182l469 1182h168l-549 -1356h-176z" />
<glyph unicode="W" horiz-adv-x="1961" d="M18 1356h162l348 -1139l365 1139h176l365 -1139l348 1139h162l-422 -1356h-174l-367 1139l-367 -1139h-174z" />
<glyph unicode="X" horiz-adv-x="1255" d="M-6 0l541 700l-504 656h194l402 -533l403 533h195l-504 -656l541 -700h-195l-440 582l-439 -582h-194z" />
<glyph unicode="Y" horiz-adv-x="1288" d="M-2 1356h186l459 -660l459 660h186l-567 -819v-537h-154v537z" />
<glyph unicode="Z" horiz-adv-x="1196" d="M59 0v145l885 1067h-872v144h1061v-148l-885 -1065h885v-143h-1074z" />
<glyph unicode="[" horiz-adv-x="573" d="M135 -272v1663h383v-127h-248v-1409h248v-127h-383z" />
<glyph unicode="\" horiz-adv-x="759" d="M74 1393h143l469 -1459h-143z" />
<glyph unicode="]" horiz-adv-x="573" d="M55 -145h248v1409h-248v127h383v-1663h-383v127z" />
<glyph unicode="^" horiz-adv-x="1024" d="M154 727l305 641h125l305 -641h-144l-223 440l-225 -440h-143z" />
<glyph unicode="_" horiz-adv-x="1228" d="M102 -150h1024v-112h-1024v112z" />
<glyph unicode="`" horiz-adv-x="696" d="M190 1382h220l125 -215h-125z" />
<glyph unicode="a" horiz-adv-x="1218" d="M70 512q0 223 135 375q139 154 369 154l2 -1q232 0 356 -182v166h153v-1024h-153v164q-123 -180 -367 -180q-221 0 -360 153q-135 152 -135 375zM223 512q0 -166 96 -274q103 -115 267 -115q166 0 262 115q92 109 92 274q0 166 -92 274q-96 115 -262 115 q-164 0 -267 -115q-96 -109 -96 -274z" />
<glyph unicode="b" horiz-adv-x="1216" d="M133 0v1434h154v-576q125 182 366 182q221 0 359 -153q137 -152 137 -375t-137 -375q-137 -154 -368 -154l-2 1q-232 0 -355 180v-164h-154zM279 512q0 -166 92 -274q96 -115 262 -115q164 0 266 115q96 109 96 274q0 166 -96 274q-102 115 -266 115q-166 0 -262 -115 q-92 -109 -92 -274z" />
<glyph unicode="c" horiz-adv-x="1114" d="M70 512q0 225 137 375q140 153 363 153h3q180 0 312 -94q125 -92 172 -244h-166q-35 88 -110.5 143.5t-174 55.5t-167 -30.5t-115.5 -84.5q-100 -111 -101 -274q0 -164 101 -274q102 -115 282 -115q98 0 174 55t111 144h166q-47 -152 -172 -244q-131 -94 -312 -94 q-225 0 -366 153q-137 150 -137 375z" />
<glyph unicode="d" horiz-adv-x="1218" d="M70 512q0 223 135 375q139 154 369 154l2 -1q232 0 356 -182v576h153v-1434h-153v164q-123 -180 -367 -180q-221 0 -360 153q-135 152 -135 375zM223 512q0 -166 96 -274q103 -115 267 -115q166 0 262 115q92 109 92 274q0 166 -92 274q-96 115 -262 115 q-164 0 -267 -115q-96 -109 -96 -274z" />
<glyph unicode="e" horiz-adv-x="1140" d="M70 512q0 227 135 375q142 153 370 153h3q229 0 372 -153q135 -147 135 -375v-61h-858q16 -141 113 -234q98 -94 250 -94q207 0 297 172h168q-53 -139 -169 -225t-298 -86q-231 0 -377 153q-141 150 -141 375zM229 594h697q-20 135 -111 219q-96 88 -237 88t-238 -88 q-90 -84 -111 -219z" />
<glyph unicode="f" horiz-adv-x="628" d="M27 889v135h176v90q0 168 100 252t279 84h12v-145h-21q-109 0 -163 -48.5t-54 -154.5v-78h238v-135h-238v-889h-153v889h-176z" />
<glyph unicode="g" horiz-adv-x="1218" d="M70 520q0 221 135 369q139 152 370 152q1 0 1 -1q233 0 356 -180v164h153v-993q0 -221 -125.5 -337t-338.5 -116t-333 82t-163 217h170q66 -160 299 -160q178 0 258 82t80 242v141q-125 -182 -367 -182q-221 0 -360 152q-135 147 -135 368zM223 520q0 -162 96 -270 q101 -111 267 -111q84 0 149.5 30t112.5 81q92 106 92 270t-92 271q-99 110 -259 110h-3q-166 0 -267 -110q-96 -109 -96 -271z" />
<glyph unicode="h" horiz-adv-x="1159" d="M133 0v1434h154v-570q55 74 135 125t182.5 51t176 -28.5t128.5 -85.5q127 -125 127 -330v-596h-153v592q0 141 -80 225t-207 84q-129 0 -219 -86q-90 -88 -90 -225v-590h-154z" />
<glyph unicode="i" horiz-adv-x="419" d="M127 1196v201h166v-201h-166zM133 0v1024h154v-1024h-154z" />
<glyph unicode="j" horiz-adv-x="419" d="M127 1196v201h166v-201h-166zM133 -406v1430h154v-1430h-154z" />
<glyph unicode="k" horiz-adv-x="1028" d="M133 0v1434h154v-918l493 508h215l-411 -403l442 -621h-188l-359 514l-192 -190v-324h-154z" />
<glyph unicode="l" horiz-adv-x="419" d="M133 0v1434h154v-1434h-154z" />
<glyph unicode="m" horiz-adv-x="1777" d="M133 0v1024h154v-156q102 172 311 172q102 0 189 -54t137 -152q70 129 217 184q58 23 131 23q2 -1 3 -1q75 0 143.5 -29.5t121.5 -84.5q115 -123 115 -308v-618h-154v614q0 127 -71 209q-72 78 -183 78q-117 0 -194 -76q-82 -78 -82 -213v-612h-154v614q0 127 -72 209 q-72 78 -182 78q-117 0 -194 -76q-82 -78 -82 -213v-612h-154z" />
<glyph unicode="n" horiz-adv-x="1159" d="M133 0v1024h154v-160q55 74 135 125t182.5 51t176 -28.5t128.5 -85.5q127 -125 127 -330v-596h-153v592q0 141 -80 225t-207 84q-129 0 -219 -86q-90 -88 -90 -225v-590h-154z" />
<glyph unicode="o" horiz-adv-x="1155" d="M70 512q0 227 135 375q144 153 373 153t372 -153q135 -147 135 -375q0 -227 -135 -375q-142 -153 -369 -153h-3q-229 0 -373 153q-135 147 -135 375zM223 512q0 -166 92 -274q97 -115 263 -115t262 115q92 109 92 274q0 166 -92 274q-96 115 -262 115t-263 -115 q-92 -109 -92 -274z" />
<glyph unicode="p" horiz-adv-x="1216" d="M133 -406v1430h154v-164q123 180 366 180q221 0 359 -153q137 -152 137 -375t-137 -375q-137 -154 -367 -154q-1 0 -1 1q-232 0 -357 182v-572h-154zM279 512q0 -166 92 -274q96 -115 262 -115q164 0 266 115q96 109 96 274q0 166 -96 274q-102 115 -266 115 q-166 0 -262 -115q-92 -109 -92 -274z" />
<glyph unicode="q" horiz-adv-x="1218" d="M70 512q0 223 135 375q139 154 370 154q1 0 1 -1q233 0 356 -180v164h153v-1430h-153v572q-125 -182 -367 -182q-221 0 -360 153q-135 152 -135 375zM223 512q0 -166 96 -274q102 -115 267 -115q166 0 262 115q92 109 92 274q0 166 -92 274q-96 115 -262 115 q-164 0 -267 -115q-96 -109 -96 -274z" />
<glyph unicode="r" horiz-adv-x="706" d="M133 0v1024h154v-252q49 160 213 236q66 32 158 32h6h10v-153h-19q-166 0 -270 -133q-98 -127 -98 -303v-451h-154z" />
<glyph unicode="s" horiz-adv-x="987" d="M61 322h160q14 -141 160 -191q53 -16 105.5 -16t97.5 6t88 22q98 39 98 133q0 63 -50 97.5t-126 56t-165 38.5t-165 48t-126 84t-50 148q0 139 101.5 215.5t299.5 76.5q188 0 297 -90q90 -76 105 -200h-156q-20 160 -255 160h-2q-236 0 -236 -148q0 -61 50 -93t126 -52.5 t165 -38t164.5 -49t126 -87t50.5 -151.5q0 -150 -113 -228.5t-305 -78.5q-205 0 -326 102q-111 90 -119 236z" />
<glyph unicode="t" horiz-adv-x="667" d="M35 889v135h209v367h153v-367h236v-135h-236v-889h-153v889h-209z" />
<glyph unicode="u" horiz-adv-x="1159" d="M123 428v596h153v-592q0 -141 80 -225t207 -84q129 0 219 86q90 88 90 225v590h154v-1024h-154v160q-55 -74 -135 -125t-182 -51t-176 28.5t-129 85.5q-127 125 -127 330z" />
<glyph unicode="v" horiz-adv-x="1001" d="M10 1024h168l324 -860l321 860h168l-399 -1024h-180z" />
<glyph unicode="w" horiz-adv-x="1544" d="M18 1024h164l246 -834l260 834h168l260 -834l246 834h164l-322 -1024h-176l-256 817l-256 -817h-176z" />
<glyph unicode="x" horiz-adv-x="987" d="M8 0l395 528l-370 496h196l265 -387l262 387h196l-370 -496l397 -528h-197l-288 418l-291 -418h-195z" />
<glyph unicode="y" horiz-adv-x="1017" d="M8 1024h170l330 -840l336 840h168l-606 -1430h-166l186 420z" />
<glyph unicode="z" horiz-adv-x="937" d="M63 0v145l613 738h-604v141h798v-143l-614 -738h614v-143h-807z" />
<glyph unicode="{" horiz-adv-x="602" d="M43 512v94q57 0 92 35q70 66 70 160v295q0 264 209 288q63 6 137 7v-111q-123 0 -167 -40t-44 -146v-271q0 -115 -43 -176t-100 -88q143 -72 143 -264v-270q0 -106 44 -146.5t167 -40.5v-110q-74 0 -136.5 7t-109.5 36q-100 63 -100 252v294q0 94 -58 150q-47 45 -104 45 z" />
<glyph unicode="|" horiz-adv-x="391" d="M133 -367v1899h125v-1899h-125z" />
<glyph unicode="}" horiz-adv-x="602" d="M51 -162q123 0 167 40t44 147v270q0 193 144 264q-57 27 -100.5 88.5t-43.5 175.5v271q0 106 -44 146t-167 40v111q74 0 136.5 -7.5t109.5 -35.5q100 -63 100 -252v-295q0 -94 58 -150q47 -45 104 -45v-94q-57 0 -92 -35q-70 -66 -70 -160v-294q0 -264 -209 -289 q-63 -6 -137 -6v110z" />
<glyph unicode="~" horiz-adv-x="1073" d="M98 440q31 274 230 275q76 0 184.5 -43t160.5 -62.5t92 -19.5t68.5 18.5t45 43t23.5 49t11 36.5h66q-20 -117 -49 -167t-70 -78.5t-101.5 -28.5t-122 19.5t-120.5 42t-111.5 42t-93.5 19.5t-69.5 -17.5t-45 -42t-23.5 -49t-11 -37.5h-64z" />
<glyph unicode="&#xa1;" horiz-adv-x="423" d="M115 815h199v209h-199v-209zM119 -332h191l-39 981h-113z" />
<glyph unicode="&#xa2;" horiz-adv-x="1175" d="M98 512q0 213 129 365t346 163v179h74v-181q166 -12 281.5 -103t156.5 -233h-165q-35 84 -103.5 137.5t-169.5 61.5v-778q100 8 169 61.5t104 137.5h165q-41 -141 -156.5 -232.5t-281.5 -103.5v-193h-74v191q-217 12 -346 163q-129 152 -129 365zM252 512q0 -147 86 -258 q90 -113 235 -129v774q-150 -20 -235 -129q-86 -111 -86 -258z" />
<glyph unicode="&#xa3;" horiz-adv-x="1177" d="M98 0v125l164 18v510h-145v119h145v148q0 195 94 315q107 137 316 137q106 0 177 -25.5t120 -68.5q92 -80 118 -217h-145q-35 113 -154 151q-43 14 -117.5 14.5t-130 -29.5t-83.5 -75q-45 -72 -45 -209v-141h303v-119h-303v-510h620v-143h-934z" />
<glyph unicode="&#xa4;" horiz-adv-x="1161" d="M98 272l131 131q-84 113 -84 261.5t84 257.5l-131 133l92 92l132 -133q113 84 261 84t257 -84l133 133l90 -92l-131 -133q84 -109 84 -257.5t-84 -261.5l131 -131l-90 -92l-133 133q-111 -86 -257.5 -86t-260.5 86l-132 -133zM270 664q0 -129 91.5 -220.5t220.5 -91.5 q63 0 120.5 24.5t100.5 65.5q90 92 90 221.5t-91 220.5t-220 91t-220.5 -91t-91.5 -220z" />
<glyph unicode="&#xa5;" horiz-adv-x="1345" d="M76 1356h186l410 -660l411 660h187l-402 -631h277v-133h-361l-34 -55v-148h395v-133h-395v-256h-154v256h-395v133h395v148l-35 55h-360v133h274z" />
<glyph unicode="&#xa7;" horiz-adv-x="1062" d="M96 610q0 178 158 242q-78 96 -78 198.5t37 163t94 95.5q98 61 240 61q164 0 276 -96q106 -92 119 -230h-141q-12 76 -80 130q-74 59 -174.5 59t-160.5 -41t-60 -111.5t48 -124t119.5 -101.5t154.5 -95t154.5 -101.5t120 -118t48.5 -145.5q0 -180 -160 -243 q80 -88 80 -193.5t-39 -166t-94 -95.5q-100 -61 -246 -62q-166 0 -281 97q-111 92 -122 229h141q12 -76 84 -129q78 -59 178 -59t164.5 41t64.5 112.5t-48 123.5t-119.5 100.5t-154.5 95.5t-154.5 101t-120 117.5t-48.5 145.5zM246 658q0 -83 50 -137t124 -101t159.5 -93.5 t157.5 -103.5q84 39 84 123t-50 137.5t-124 101.5t-160 94t-157 103q-84 -41 -84 -124z" />
<glyph unicode="&#xa8;" horiz-adv-x="866" d="M152 1186v170h182v-170h-182zM473 1186v170h182v-170h-182z" />
<glyph unicode="&#xa9;" horiz-adv-x="1595" d="M96 674q0 145 55.5 273t150.5 223.5t222.5 150.5t272.5 55t273 -55t223.5 -150.5t150.5 -223.5t55 -273t-55 -272.5t-150.5 -222.5t-223.5 -150.5t-273 -55.5t-272.5 55.5t-222.5 150.5t-150.5 222t-55.5 273zM197 674q0 -123 47 -232.5t129 -191.5q172 -176 424 -176 q250 0 426 176q82 82 129 191.5t47 233.5t-47 233.5t-129 191.5q-176 176 -426 176q-252 0 -424 -176q-176 -178 -176 -426zM414 674q0 176 102 287q104 113 281 112q225 0 323 -164q33 -53 45 -127h-137q-14 76 -72.5 119t-163 43t-172 -74.5t-67.5 -195.5t67.5 -196 t172 -75t163 43t72.5 119h137q-25 -143 -125 -221q-94 -72 -243 -72q-178 0 -281 113q-102 115 -102 289z" />
<glyph unicode="&#xaa;" horiz-adv-x="759" d="M75.5 1083.5q0.5 118.5 71.5 198.5q74 82 197 82t193 -96v88h106v-545h-106v88q-66 -96 -195 -96q-121 0 -195 82q-72 80 -71.5 198.5zM182 1082.5q0 -78.5 45 -130t131 -51.5t133.5 52.5t47.5 129.5q0 78 -47.5 130.5t-133.5 52.5t-131 -52.5t-45 -131z" />
<glyph unicode="&#xab;" horiz-adv-x="997" d="M80 530l266 414h182l-280 -414l280 -413h-182zM457 530l266 414h182l-280 -414l280 -413h-182z" />
<glyph unicode="&#xac;" horiz-adv-x="1214" d="M127 657v140h956v-416h-147v276h-809z" />
<glyph unicode="&#xad;" horiz-adv-x="729" d="M109 530v150h512v-150h-512z" />
<glyph unicode="&#xae;" horiz-adv-x="1595" d="M96 674q0 145 55.5 273t150.5 223.5t222.5 150.5t272.5 55t273 -55t223.5 -150.5t150.5 -223.5t55 -273t-55 -272.5t-150.5 -222.5t-223.5 -150.5t-273 -55.5t-272.5 55.5t-222.5 150.5t-150.5 222t-55.5 273zM197 674q0 -123 47 -232.5t129 -191.5q172 -176 424 -176 q250 0 426 176q82 82 129 191.5t47 233.5t-47 233.5t-129 191.5q-176 176 -426 176q-252 0 -424 -176q-176 -178 -176 -426zM492 283v782h331q166 0 243 -63.5t77 -167.5q0 -70 -41 -124.5t-113 -76.5q113 -33 137 -184q6 -39 7 -70v-96h-142v77q0 88 -18 127 q-39 82 -139 82h-199v-286h-143zM635 692h178q86 0 137 33t51 92.5t-40.5 93t-151.5 33.5h-174v-252z" />
<glyph unicode="&#xaf;" horiz-adv-x="782" d="M117 1192v123h540v-123h-540z" />
<glyph unicode="&#xb0;" horiz-adv-x="681" d="M74 1098q0 115 78 188q82 80 188 80q111 0 189.5 -79t78.5 -189q0 -106 -80 -189q-74 -78 -188 -78q-111 0 -188.5 78t-77.5 189zM190 1098.5q0 -62.5 44.5 -106.5t106.5 -44t106.5 44t44.5 106.5t-44.5 106.5t-106.5 44t-106.5 -44t-44.5 -106.5z" />
<glyph unicode="&#xb1;" d="M102 0v127h922v-127h-922zM102 565v133h394v316h133v-316h395v-133h-395v-315h-133v315h-394z" />
<glyph unicode="&#xb2;" horiz-adv-x="724" d="M94 1122q14 102 87 171t186.5 69t181 -63.5t67.5 -159.5q0 -141 -163 -250q-45 -29 -88 -58q-102 -68 -127 -110h378v-107h-510v60q0 123 199 250q119 76 159 123t40 96t-39 79.5t-100.5 30.5t-103.5 -37.5t-52 -93.5h-115z" />
<glyph unicode="&#xb3;" horiz-adv-x="686" d="M78 834h112q10 -49 54.5 -86t108 -37t101.5 36.5t38 83.5t-34 86t-104 39h-96v97h88q49 0 86 28.5t37 72.5t-31.5 73.5t-92 29.5t-95.5 -31.5t-43 -72.5h-111q8 84 72 145q70 66 173 66t172 -48t69 -132q-1 -127 -105 -176q66 -29 96.5 -73t30.5 -105.5t-21.5 -100.5 t-58.5 -65q-72 -57 -176 -58q-106 0 -184 66q-78 68 -86 162z" />
<glyph unicode="&#xb4;" horiz-adv-x="714" d="M176 1167l125 215h219l-219 -215h-125z" />
<glyph unicode="&#xb5;" horiz-adv-x="1155" d="M147 -406v1430h154v-592q0 -141 80 -225t207 -84q129 0 219 86q90 88 90 225v590h154v-1024h-154v160q-55 -74 -131 -125t-201 -51q-162 0 -264 110v-500h-154z" />
<glyph unicode="&#xb6;" horiz-adv-x="1157" d="M74 1028q0 141 98 244q98 100 244 100h626v-110h-88v-1551h-120v1551h-148v-1551h-121v975h-149q-143 0 -242.5 99.5t-99.5 242.5z" />
<glyph unicode="&#xb7;" horiz-adv-x="415" d="M109 496v209h198v-209h-198z" />
<glyph unicode="&#xb8;" horiz-adv-x="614" d="M68 -346l38 67q90 -61 175 -61q113 0 112 74q0 31 -32.5 49t-72.5 18t-75 -10l-43 35l141 221h88l-90 -158q20 4 45 5q78 0 133.5 -42t55.5 -116q0 -121 -146 -156q-41 -10 -103.5 -10t-125 25.5t-100.5 58.5z" />
<glyph unicode="&#xb9;" horiz-adv-x="434" d="M53 1249v107h262v-740h-112v633h-150z" />
<glyph unicode="&#xba;" horiz-adv-x="700" d="M76 1083q0 121 76 199q75 82 198 82t199 -82q76 -78 76 -199t-76 -198q-76 -82 -199 -82t-198 82q-76 78 -76 198zM182 1082.5q0 -72.5 42 -127t126 -54.5t126 54.5t42 127t-42 128t-126 55.5t-126 -55.5t-42 -128z" />
<glyph unicode="&#xbb;" horiz-adv-x="997" d="M92 117l281 413l-281 414h182l267 -414l-267 -413h-182zM469 117l281 413l-281 414h182l267 -414l-267 -413h-182z" />
<glyph unicode="&#xbc;" horiz-adv-x="1460" d="M80 1249v107h262v-740h-113v633h-149zM201 -29l860 1409h131l-860 -1409h-131zM827 180v101l306 458h145v-458h94v-101h-94v-180h-113v180h-338zM942 281h223v335z" />
<glyph unicode="&#xbd;" horiz-adv-x="1544" d="M80 1249v107h262v-740h-112v633h-150zM201 -29l860 1409h131l-860 -1409h-131zM921 510q14 102 87 171t186.5 69t181 -63.5t67.5 -159.5q0 -141 -163 -250q-45 -29 -88 -58q-102 -68 -127 -110h378v-107h-510v60q0 123 199 250q119 76 159 123t40 96t-39 79.5 t-100.5 30.5t-103.5 -37.5t-52 -93.5h-115z" />
<glyph unicode="&#xbe;" horiz-adv-x="1607" d="M88 834h113q10 -49 54 -86t107.5 -37t101.5 36.5t38 83.5t-34 86t-103 39h-97v97h88q49 0 86 28.5t37 72.5t-31.5 73.5t-92 29.5t-95.5 -31.5t-43 -72.5h-111q8 84 72 145q70 66 173.5 66t172 -48t68.5 -132q-1 -127 -105 -176q66 -29 96.5 -73t30.5 -105.5t-21.5 -100.5 t-55.5 -65q-74 -57 -179 -58q-106 0 -182 66q-80 68 -88 162zM352 -29l860 1409h131l-860 -1409h-131zM979 180v101l305 458h146v-458h94v-101h-94v-180h-113v180h-338zM1094 281h223v335z" />
<glyph unicode="&#xbf;" horiz-adv-x="1038" d="M92 29q0 74 24.5 131t62.5 103t82 85t83 82q86 98 86 219h149q0 -190 -170 -346q-104 -92 -138 -154.5t-34 -113.5t12.5 -91t42.5 -75q70 -76 207 -76q141 0 230 84q82 78 90 193h145q-8 -174 -129 -293q-129 -125 -323 -125q-209 0 -320 115q-100 104 -100 262zM405 815 v209h199v-209h-199z" />
<glyph unicode="&#xc0;" horiz-adv-x="1355" d="M6 0l576 1356h192l576 -1356h-170l-166 393h-672l-166 -393h-170zM401 535h553l-276 661zM460 1679h220l125 -215h-125z" />
<glyph unicode="&#xc1;" horiz-adv-x="1355" d="M6 0l576 1356h192l576 -1356h-170l-166 393h-672l-166 -393h-170zM401 535h553l-276 661zM547 1464l125 215h219l-219 -215h-125z" />
<glyph unicode="&#xc2;" horiz-adv-x="1355" d="M6 0l576 1356h192l576 -1356h-170l-166 393h-672l-166 -393h-170zM389 1464l201 215h178l199 -215h-168l-121 111l-121 -111h-168zM401 535h553l-276 661z" />
<glyph unicode="&#xc3;" horiz-adv-x="1355" d="M6 0l576 1356h192l576 -1356h-170l-166 393h-672l-166 -393h-170zM364 1464q14 135 113 185q37 16 86 16q68 0 125 -28.5t87 -42t70 -13.5t63.5 27.5t31.5 54.5h65q-33 -201 -196 -201q-74 0 -129 28t-85 41t-65 13q-72 0 -102 -80h-64zM401 535h553l-276 661z" />
<glyph unicode="&#xc4;" horiz-adv-x="1355" d="M6 0l576 1356h192l576 -1356h-170l-166 393h-672l-166 -393h-170zM401 535h553l-276 661zM426 1475v170h182v-170h-182zM747 1475v170h182v-170h-182z" />
<glyph unicode="&#xc5;" horiz-adv-x="1355" d="M6 0l565 1333q-78 55 -77.5 141.5t53.5 139.5t129 53t131 -53q55 -51 55 -139.5t-80 -141.5l568 -1333h-170l-166 393h-672l-166 -393h-170zM401 535h553l-276 661zM588 1484q0 -38 26.5 -64.5t63.5 -26.5t63.5 26.5t26.5 64.5t-26.5 64.5t-63.5 26.5t-63.5 -26.5 t-26.5 -64.5z" />
<glyph unicode="&#xc6;" horiz-adv-x="2093" d="M-6 0l928 1356h1091v-148h-792v-454h702v-150h-702v-457h792v-147h-946v379h-633l-256 -379h-184zM530 520h537v688h-70z" />
<glyph unicode="&#xc7;" horiz-adv-x="1413" d="M80 678q0 297 174 491q184 203 481 203q225 0 391 -119q156 -111 224 -303h-162q-53 125 -163 199t-255 74t-241.5 -42t-161.5 -116q-133 -150 -134 -387q0 -238 134 -387q139 -158 381 -158q168 0 277.5 74t162.5 199h162q-63 -180 -213 -296t-369 -126l-53 -95 q20 4 45 5q78 0 133 -42t55 -116q0 -121 -145 -156q-41 -10 -103.5 -10t-125 25.5t-101.5 58.5l39 67q90 -61 174 -61q113 0 113 74q0 31 -33 49t-73 18t-75 -10l-43 35l103 160q-276 20 -440 219q-158 193 -158 473z" />
<glyph unicode="&#xc8;" horiz-adv-x="1245" d="M166 0v1356h997v-148h-844v-454h754v-150h-754v-457h844v-147h-997zM444 1679h220l125 -215h-125z" />
<glyph unicode="&#xc9;" horiz-adv-x="1245" d="M166 0v1356h997v-148h-844v-454h754v-150h-754v-457h844v-147h-997zM547 1464l125 215h219l-219 -215h-125z" />
<glyph unicode="&#xca;" horiz-adv-x="1245" d="M166 0v1356h997v-148h-844v-454h754v-150h-754v-457h844v-147h-997zM389 1464l201 215h178l199 -215h-168l-121 111l-121 -111h-168z" />
<glyph unicode="&#xcb;" horiz-adv-x="1245" d="M166 0v1356h997v-148h-844v-454h754v-150h-754v-457h844v-147h-997zM426 1475v170h182v-170h-182zM747 1475v170h182v-170h-182z" />
<glyph unicode="&#xcc;" horiz-adv-x="485" d="M34 1679h220l125 -215h-125zM166 0v1356h153v-1356h-153z" />
<glyph unicode="&#xcd;" horiz-adv-x="485" d="M104 1464l125 215h219l-219 -215h-125zM166 0v1356h153v-1356h-153z" />
<glyph unicode="&#xce;" horiz-adv-x="485" d="M-45 1464l201 215h178l199 -215h-168l-121 111l-121 -111h-168zM166 0v1356h153v-1356h-153z" />
<glyph unicode="&#xcf;" horiz-adv-x="485" d="M-8 1475v170h182v-170h-182zM166 0v1356h153v-1356h-153zM313 1475v170h182v-170h-182z" />
<glyph unicode="&#xd0;" horiz-adv-x="1458" d="M14 610v133h168v613h572q121 0 233.5 -46t198.5 -134q190 -195 190 -498t-190 -498q-86 -88 -199 -134t-233 -46h-572v610h-168zM336 145h412q213 0 346 158q129 152 129 375t-129 375q-133 158 -346 157h-412v-467h391v-133h-391v-465z" />
<glyph unicode="&#xd1;" horiz-adv-x="1501" d="M166 0v1356h178l838 -1141v1141h153v-1356h-178l-838 1145v-1145h-153zM438 1464q14 135 113 185q37 16 86 16q68 0 125 -28.5t87 -42t70 -13.5t63.5 27.5t31.5 54.5h65q-33 -201 -196 -201q-74 0 -129 28t-85 41t-65 13q-72 0 -102 -80h-64z" />
<glyph unicode="&#xd2;" horiz-adv-x="1536" d="M80 678q0 295 190 491q195 203 498 203t498 -203q190 -197 190 -491.5t-190 -491.5q-195 -203 -498 -202q-303 0 -498 202q-190 197 -190 492zM233 678q0 -236 144 -387q149 -158 391 -158t391 158q143 152 144 387q0 236 -144 387q-150 158 -391 158q-242 0 -391 -158 q-143 -152 -144 -387zM565 1679h220l125 -215h-125z" />
<glyph unicode="&#xd3;" horiz-adv-x="1536" d="M80 678q0 295 190 491q195 203 498 203t498 -203q190 -197 190 -491.5t-190 -491.5q-195 -203 -498 -202q-303 0 -498 202q-190 197 -190 492zM233 678q0 -236 144 -387q149 -158 391 -158t391 158q143 152 144 387q0 236 -144 387q-150 158 -391 158q-242 0 -391 -158 q-143 -152 -144 -387zM618 1464l125 215h219l-219 -215h-125z" />
<glyph unicode="&#xd4;" horiz-adv-x="1536" d="M80 678q0 295 190 491q195 203 498 203t498 -203q190 -197 190 -491.5t-190 -491.5q-195 -203 -498 -202q-303 0 -498 202q-190 197 -190 492zM233 678q0 -236 144 -387q149 -158 391 -158t391 158q143 152 144 387q0 236 -144 387q-150 158 -391 158q-242 0 -391 -158 q-143 -152 -144 -387zM479 1464l201 215h178l199 -215h-168l-121 111l-121 -111h-168z" />
<glyph unicode="&#xd5;" horiz-adv-x="1536" d="M80 678q0 295 190 491q195 203 498 203t498 -203q190 -197 190 -491.5t-190 -491.5q-195 -203 -498 -202q-303 0 -498 202q-190 197 -190 492zM233 678q0 -236 144 -387q149 -158 391 -158t391 158q143 152 144 387q0 236 -144 387q-150 158 -391 158q-242 0 -391 -158 q-143 -152 -144 -387zM450 1464q14 135 113 185q37 16 86 16q68 0 125 -28.5t87 -42t70 -13.5t63.5 27.5t31.5 54.5h65q-33 -201 -196 -201q-74 0 -129 28t-85 41t-65 13q-72 0 -102 -80h-64z" />
<glyph unicode="&#xd6;" horiz-adv-x="1536" d="M80 678q0 295 190 491q195 203 498 203t498 -203q190 -197 190 -491.5t-190 -491.5q-195 -203 -498 -202q-303 0 -498 202q-190 197 -190 492zM233 678q0 -236 144 -387q149 -158 391 -158t391 158q143 152 144 387q0 236 -144 387q-150 158 -391 158q-242 0 -391 -158 q-143 -152 -144 -387zM517 1475v170h182v-170h-182zM838 1475v170h182v-170h-182z" />
<glyph unicode="&#xd7;" d="M147 213l316 313l-316 316l103 100l313 -313l316 313l100 -100l-313 -316l313 -313l-100 -102l-316 315l-313 -315z" />
<glyph unicode="&#xd8;" horiz-adv-x="1536" d="M80 678q0 295 190 491q195 203 498 203q248 0 430 -139l137 160l66 -58l-139 -159q195 -195 194 -498q0 -295 -190 -492q-195 -203 -498 -202q-242 0 -428 141l-139 -160l-64 58l139 157q-197 201 -196 498zM233 678q0 -233 142 -383l723 825q-137 102 -330 103 q-242 0 -391 -158q-143 -152 -144 -387zM438 238q139 -104 330 -105q242 0 391 158q143 152 144 387q0 233 -140 385z" />
<glyph unicode="&#xd9;" horiz-adv-x="1452" d="M150 584v772h153v-776q0 -219 131 -342q113 -104 291 -105q178 0 293 105q131 121 131 342v776h154v-772q0 -270 -161 -435t-417 -165q-254 0 -414.5 164.5t-160.5 435.5zM499 1679h220l125 -215h-125z" />
<glyph unicode="&#xda;" horiz-adv-x="1452" d="M150 584v772h153v-776q0 -219 131 -342q113 -104 291 -105q178 0 293 105q131 121 131 342v776h154v-772q0 -270 -161 -435t-417 -165q-254 0 -414.5 164.5t-160.5 435.5zM602 1464l125 215h219l-219 -215h-125z" />
<glyph unicode="&#xdb;" horiz-adv-x="1452" d="M150 584v772h153v-776q0 -219 131 -342q113 -104 291 -105q178 0 293 105q131 121 131 342v776h154v-772q0 -270 -161 -435t-417 -165q-254 0 -414.5 164.5t-160.5 435.5zM436 1464l201 215h178l199 -215h-168l-121 111l-121 -111h-168z" />
<glyph unicode="&#xdc;" horiz-adv-x="1452" d="M150 584v772h153v-776q0 -219 131 -342q113 -104 291 -105q178 0 293 105q131 121 131 342v776h154v-772q0 -270 -161 -435t-417 -165q-254 0 -414.5 164.5t-160.5 435.5zM474 1475v170h182v-170h-182zM795 1475v170h182v-170h-182z" />
<glyph unicode="&#xdd;" horiz-adv-x="1288" d="M-2 1356h186l459 -660l459 660h186l-567 -819v-537h-154v537zM510 1464l125 215h219l-219 -215h-125z" />
<glyph unicode="&#xde;" horiz-adv-x="1284" d="M166 0v1356h153v-199h457q215 0 342 -119q125 -119 125 -317q0 -201 -126 -318.5t-341 -117.5h-457v-285h-153zM319 428h447q160 0 242 78t82 214t-82 214t-242 78h-447v-584z" />
<glyph unicode="&#xdf;" horiz-adv-x="1140" d="M133 0v991q0 178 116 279.5t322 101.5q182 0 299 -88q131 -101 131 -285q0 -240 -221 -309q186 -43 262 -205q29 -61 29 -147q0 -164 -126 -251t-345 -87h-180v135h182q141 0 227 54.5t86 170.5q0 117 -102 190t-295 73v112q141 0 234 64q96 70 96 181.5t-68.5 183 t-210.5 71.5q-203 0 -262 -129q-20 -49 -20 -123v-983h-154z" />
<glyph unicode="&#xe0;" horiz-adv-x="1218" d="M70 512q0 223 135 375q139 154 370.5 153.5t356.5 -182.5v166h153v-1024h-153v164q-123 -180 -367 -180q-221 0 -360 153q-135 152 -135 375zM223 512q0 -166 96 -274q103 -115 267 -115q166 0 262 115q92 109 92 274q0 166 -92 274q-96 115 -262 115q-164 0 -267 -115 q-96 -109 -96 -274zM335 1382h220l125 -215h-125z" />
<glyph unicode="&#xe1;" horiz-adv-x="1218" d="M70 512q0 223 135 375q139 154 370.5 153.5t356.5 -182.5v166h153v-1024h-153v164q-123 -180 -367 -180q-221 0 -360 153q-135 152 -135 375zM223 512q0 -166 96 -274q103 -115 267 -115q166 0 262 115q92 109 92 274q0 166 -92 274q-96 115 -262 115q-164 0 -267 -115 q-96 -109 -96 -274zM446 1167l125 215h219l-219 -215h-125z" />
<glyph unicode="&#xe2;" horiz-adv-x="1218" d="M70 512q0 223 135 375q139 154 370.5 153.5t356.5 -182.5v166h153v-1024h-153v164q-123 -180 -367 -180q-221 0 -360 153q-135 152 -135 375zM223 512q0 -166 96 -274q103 -115 267 -115q166 0 262 115q92 109 92 274q0 166 -92 274q-96 115 -262 115q-164 0 -267 -115 q-96 -109 -96 -274zM278 1167l201 215h178l199 -215h-168l-121 111l-121 -111h-168z" />
<glyph unicode="&#xe3;" horiz-adv-x="1218" d="M70 512q0 223 135 375q139 154 370.5 153.5t356.5 -182.5v166h153v-1024h-153v164q-123 -180 -367 -180q-221 0 -360 153q-135 152 -135 375zM223 512q0 -166 96 -274q103 -115 267 -115q166 0 262 115q92 109 92 274q0 166 -92 274q-96 115 -262 115q-164 0 -267 -115 q-96 -109 -96 -274zM276 1167q14 135 113 185q37 16 86 16q68 0 125 -28.5t87 -42t70 -13.5t63.5 27.5t31.5 54.5h65q-33 -201 -196 -201q-74 0 -129 28t-85 41t-65 13q-72 0 -102 -80h-64z" />
<glyph unicode="&#xe4;" horiz-adv-x="1218" d="M70 512q0 223 135 375q139 154 370.5 153.5t356.5 -182.5v166h153v-1024h-153v164q-123 -180 -367 -180q-221 0 -360 153q-135 152 -135 375zM223 512q0 -166 96 -274q103 -115 267 -115q166 0 262 115q92 109 92 274q0 166 -92 274q-96 115 -262 115q-164 0 -267 -115 q-96 -109 -96 -274zM322 1186v170h182v-170h-182zM643 1186v170h182v-170h-182z" />
<glyph unicode="&#xe5;" horiz-adv-x="1218" d="M70 512q0 223 135 375q139 154 370.5 153.5t356.5 -182.5v166h153v-1024h-153v164q-123 -180 -367 -180q-221 0 -360 153q-135 152 -135 375zM223 512q0 -166 96 -274q103 -115 267 -115q166 0 262 115q92 109 92 274q0 166 -92 274q-96 115 -262 115q-164 0 -267 -115 q-96 -109 -96 -274zM390 1322q0 77 53 130t129 53t131 -52t55 -131t-55 -131t-131 -52t-129 53t-53 130zM484 1322q0 -38 26.5 -64.5t63.5 -26.5t63.5 26.5t26.5 64.5t-26.5 64.5t-63.5 26.5t-63.5 -26.5t-26.5 -64.5z" />
<glyph unicode="&#xe6;" horiz-adv-x="2000" d="M70 512q0 223 135 375q139 154 370.5 153.5t356.5 -182.5v166h153v-147q119 164 353 163q229 0 372 -153q135 -147 136 -375v-61h-859q18 -145 109 -234q100 -94 254 -94q115 0 189.5 55t115.5 144h164q-49 -150 -175 -244t-306 -94q-233 0 -353 161v-145h-153v164 q-123 -180 -367 -180q-221 0 -360 153q-135 152 -135 375zM223 512q0 -166 96 -274q103 -115 267 -115q166 0 262 115q92 109 92 274q0 166 -92 274q-96 115 -262 115q-164 0 -267 -115q-96 -109 -96 -274zM1090 594h696q-20 135 -111 219q-96 88 -237 88t-238 -88 q-90 -84 -110 -219z" />
<glyph unicode="&#xe7;" horiz-adv-x="1114" d="M70 512q0 225 137 375q141 154 366 153q180 0 312 -94q125 -92 172 -244h-166q-35 88 -110.5 143.5t-174 55.5t-167 -30.5t-115.5 -84.5q-100 -111 -101 -274q0 -164 101 -274q102 -115 270 -115q111 0 186.5 55t110.5 144h166q-43 -141 -160 -233.5t-285 -102.5l-53 -97 q20 4 45 5q78 0 133.5 -42t55.5 -116q0 -121 -146 -156q-41 -10 -103.5 -10t-125 25.5t-101.5 58.5l39 67q90 -61 174 -61q113 0 113 74q0 31 -32.5 49t-72.5 18t-75 -10l-43 35l102 162q-207 16 -329 168q-123 147 -123 356z" />
<glyph unicode="&#xe8;" horiz-adv-x="1140" d="M70 512q0 227 135 375q143 154 373 153q229 0 372 -153q135 -147 135 -375v-61h-858q16 -141 113 -234q98 -94 250 -94q207 0 297 172h168q-53 -139 -169 -225t-298 -86q-231 0 -377 153q-141 150 -141 375zM229 594h697q-20 135 -111 219q-96 88 -237 88t-238 -88 q-90 -84 -111 -219zM364 1382h220l125 -215h-125z" />
<glyph unicode="&#xe9;" horiz-adv-x="1140" d="M70 512q0 227 135 375q143 154 373 153q229 0 372 -153q135 -147 135 -375v-61h-858q16 -141 113 -234q98 -94 250 -94q207 0 297 172h168q-53 -139 -169 -225t-298 -86q-231 0 -377 153q-141 150 -141 375zM229 594h697q-20 135 -111 219q-96 88 -237 88t-238 -88 q-90 -84 -111 -219zM432 1167l125 215h219l-219 -215h-125z" />
<glyph unicode="&#xea;" horiz-adv-x="1140" d="M70 512q0 227 135 375q143 154 373 153q229 0 372 -153q135 -147 135 -375v-61h-858q16 -141 113 -234q98 -94 250 -94q207 0 297 172h168q-53 -139 -169 -225t-298 -86q-231 0 -377 153q-141 150 -141 375zM229 594h697q-20 135 -111 219q-96 88 -237 88t-238 -88 q-90 -84 -111 -219zM288 1167l201 215h178l199 -215h-168l-121 111l-121 -111h-168z" />
<glyph unicode="&#xeb;" horiz-adv-x="1140" d="M70 512q0 227 135 375q143 154 373 153q229 0 372 -153q135 -147 135 -375v-61h-858q16 -141 113 -234q98 -94 250 -94q207 0 297 172h168q-53 -139 -169 -225t-298 -86q-231 0 -377 153q-141 150 -141 375zM229 594h697q-20 135 -111 219q-96 88 -237 88t-238 -88 q-90 -84 -111 -219zM326 1186v170h182v-170h-182zM647 1186v170h182v-170h-182z" />
<glyph unicode="&#xec;" horiz-adv-x="419" d="M8 1382h220l125 -215h-125zM133 0v1024h154v-1024h-154z" />
<glyph unicode="&#xed;" horiz-adv-x="419" d="M72 1167l125 215h219l-219 -215h-125zM133 0v1024h154v-1024h-154z" />
<glyph unicode="&#xee;" horiz-adv-x="419" d="M-78 1167l201 215h178l199 -215h-168l-121 111l-121 -111h-168zM133 0v1024h154v-1024h-154z" />
<glyph unicode="&#xef;" horiz-adv-x="419" d="M-41 1186v170h182v-170h-182zM133 0v1024h154v-1024h-154zM280 1186v170h182v-170h-182z" />
<glyph unicode="&#xf0;" horiz-adv-x="1173" d="M70 518q0 225 127 379q129 156 342 156q186 0 299 -121q-59 115 -197 211q-37 25 -72 49l-114 -76l-66 78l88 57q-68 39 -131 68l55 145q109 -51 213 -121l154 103l66 -78l-134 -88q186 -150 275 -297q111 -188 110 -432q0 -231 -131 -391q-143 -176 -368 -176 q-242 0 -385 159q-131 143 -131 375zM223 518q0 -164 92 -276q99 -121 263 -121t262 121q92 113 92 276q0 162 -101 277q-104 121 -270 120q-158 0 -252 -116q-86 -111 -86 -281z" />
<glyph unicode="&#xf1;" horiz-adv-x="1159" d="M133 0v1024h154v-160q55 74 135 125t182.5 51t176 -28.5t128.5 -85.5q127 -125 127 -330v-596h-153v592q0 141 -80 225t-207 84q-129 0 -219 -86q-90 -88 -90 -225v-590h-154zM268 1167q14 135 113 185q37 16 86 16q68 0 125 -28.5t87 -42t70 -13.5t63.5 27.5t31.5 54.5 h65q-33 -201 -196 -201q-74 0 -129 28t-85 41t-65 13q-72 0 -102 -80h-64z" />
<glyph unicode="&#xf2;" horiz-adv-x="1155" d="M70 512q0 227 135 375q144 153 373 153t372 -153q135 -147 135 -375q0 -227 -135 -375q-143 -154 -372 -153q-229 0 -373 153q-135 147 -135 375zM223 512q0 -166 92 -274q97 -115 263 -115t262 115q92 109 92 274q0 166 -92 274q-96 115 -262 115t-263 -115 q-92 -109 -92 -274zM370 1382h220l125 -215h-125z" />
<glyph unicode="&#xf3;" horiz-adv-x="1155" d="M70 512q0 227 135 375q144 153 373 153t372 -153q135 -147 135 -375q0 -227 -135 -375q-143 -154 -372 -153q-229 0 -373 153q-135 147 -135 375zM223 512q0 -166 92 -274q97 -115 263 -115t262 115q92 109 92 274q0 166 -92 274q-96 115 -262 115t-263 -115 q-92 -109 -92 -274zM430 1167l125 215h219l-219 -215h-125z" />
<glyph unicode="&#xf4;" horiz-adv-x="1155" d="M70 512q0 227 135 375q144 153 373 153t372 -153q135 -147 135 -375q0 -227 -135 -375q-143 -154 -372 -153q-229 0 -373 153q-135 147 -135 375zM223 512q0 -166 92 -274q97 -115 263 -115t262 115q92 109 92 274q0 166 -92 274q-96 115 -262 115t-263 -115 q-92 -109 -92 -274zM288 1167l201 215h178l199 -215h-168l-121 111l-121 -111h-168z" />
<glyph unicode="&#xf5;" horiz-adv-x="1155" d="M70 512q0 227 135 375q144 153 373 153t372 -153q135 -147 135 -375q0 -227 -135 -375q-143 -154 -372 -153q-229 0 -373 153q-135 147 -135 375zM223 512q0 -166 92 -274q97 -115 263 -115t262 115q92 109 92 274q0 166 -92 274q-96 115 -262 115t-263 -115 q-92 -109 -92 -274zM264 1167q14 135 113 185q37 16 86 16q68 0 125 -28.5t87 -42t70 -13.5t63.5 27.5t31.5 54.5h65q-33 -201 -196 -201q-74 0 -129 28t-85 41t-65 13q-72 0 -102 -80h-64z" />
<glyph unicode="&#xf6;" horiz-adv-x="1155" d="M70 512q0 227 135 375q144 153 373 153t372 -153q135 -147 135 -375q0 -227 -135 -375q-143 -154 -372 -153q-229 0 -373 153q-135 147 -135 375zM223 512q0 -166 92 -274q97 -115 263 -115t262 115q92 109 92 274q0 166 -92 274q-96 115 -262 115t-263 -115 q-92 -109 -92 -274zM326 1186v170h182v-170h-182zM647 1186v170h182v-170h-182z" />
<glyph unicode="&#xf7;" d="M78 410v141h971v-141h-971zM473 35v190h180v-190h-180zM473 735v191h180v-191h-180z" />
<glyph unicode="&#xf8;" horiz-adv-x="1155" d="M70 512q0 227 135 375q144 153 373 153q188 0 321 -106l111 123l53 -47l-111 -127q133 -145 133 -371q0 -227 -135 -375q-143 -154 -372 -153q-193 0 -320 106l-111 -125l-53 47l111 127q-135 147 -135 373zM223 512q0 -154 82 -260l498 571q-90 78 -225 78 q-166 0 -263 -115q-92 -109 -92 -274zM354 201q90 -78 239.5 -78t244 111.5t94.5 271.5t-80 264z" />
<glyph unicode="&#xf9;" horiz-adv-x="1159" d="M123 428v596h153v-592q0 -141 80 -225t207 -84q129 0 219 86q90 88 90 225v590h154v-1024h-154v160q-55 -74 -135 -125t-182 -51t-176 28.5t-129 85.5q-127 125 -127 330zM358 1382h220l125 -215h-125z" />
<glyph unicode="&#xfa;" horiz-adv-x="1159" d="M123 428v596h153v-592q0 -141 80 -225t207 -84q129 0 219 86q90 88 90 225v590h154v-1024h-154v160q-55 -74 -135 -125t-182 -51t-176 28.5t-129 85.5q-127 125 -127 330zM440 1167l125 215h219l-219 -215h-125z" />
<glyph unicode="&#xfb;" horiz-adv-x="1159" d="M123 428v596h153v-592q0 -141 80 -225t207 -84q129 0 219 86q90 88 90 225v590h154v-1024h-154v160q-55 -74 -135 -125t-182 -51t-176 28.5t-129 85.5q-127 125 -127 330zM284 1167l201 215h178l199 -215h-168l-121 111l-121 -111h-168z" />
<glyph unicode="&#xfc;" horiz-adv-x="1159" d="M123 428v596h153v-592q0 -141 80 -225t207 -84q129 0 219 86q90 88 90 225v590h154v-1024h-154v160q-55 -74 -135 -125t-182 -51t-176 28.5t-129 85.5q-127 125 -127 330zM322 1186v170h182v-170h-182zM643 1186v170h182v-170h-182z" />
<glyph unicode="&#xfd;" horiz-adv-x="1017" d="M8 1024h170l330 -840l336 840h168l-606 -1430h-166l186 420zM387 1167l125 215h219l-219 -215h-125z" />
<glyph unicode="&#xfe;" horiz-adv-x="1216" d="M133 -406v1840h154v-576q125 182 366 182q221 0 359 -153q137 -152 137 -375t-137 -375q-137 -154 -369.5 -153.5t-355.5 180.5v-570h-154zM279 512q0 -166 92 -274q96 -115 262 -115q164 0 266 115q96 109 96 274q0 166 -96 274q-102 115 -266 115q-166 0 -262 -115 q-92 -109 -92 -274z" />
<glyph unicode="&#xff;" horiz-adv-x="1017" d="M8 1024h170l330 -840l336 840h168l-606 -1430h-166l186 420zM258 1186v170h182v-170h-182zM579 1186v170h182v-170h-182z" />
<glyph unicode="&#x152;" horiz-adv-x="2342" d="M80 678q0 297 178 491q188 203 500.5 203.5t494.5 -239.5v223h1008v-148h-854v-456h764v-150h-764v-455h854v-147h-1008v221q-180 -238 -505 -237q-301 0 -490 202q-178 195 -178 492zM233 678q0 -238 134 -387q139 -158 381 -158t380 158q133 150 134 387 q0 238 -134 387q-139 158 -380 158q-242 0 -381 -158q-133 -150 -134 -387z" />
<glyph unicode="&#x153;" horiz-adv-x="1990" d="M70 512q0 227 135 375q143 154 373 153q154 0 260 -68.5t163 -180.5q60 112 166.5 180.5t241.5 68.5t229.5 -41t159.5 -112q137 -147 137 -375v-61h-858q18 -145 111 -234q98 -94 252 -94q115 0 189.5 55t115.5 144h164q-49 -150 -175 -244t-292 -94q-309 0 -441 247 q-57 -113 -163.5 -180t-241.5 -67t-229.5 41t-161.5 112q-135 147 -135 375zM223 512q0 -166 92 -274q97 -115 263 -115t262 115q92 109 92 274q0 166 -92 274q-96 115 -262 115t-263 -115q-92 -109 -92 -274zM1079 594h697q-20 135 -113 219q-94 88 -236 88 q-141 0 -235 -88q-92 -84 -113 -219z" />
<glyph unicode="&#x178;" horiz-adv-x="1288" d="M-2 1356h186l459 -660l459 660h186l-567 -819v-537h-154v537zM392 1475v170h182v-170h-182zM713 1475v170h182v-170h-182z" />
<glyph unicode="&#x2c6;" horiz-adv-x="786" d="M100 1167l201 215h178l199 -215h-168l-121 111l-121 -111h-168z" />
<glyph unicode="&#x2dc;" horiz-adv-x="948" d="M145 1167q14 135 113 185q37 16 86 16q68 0 125 -28.5t87 -42t70 -13.5t63.5 27.5t31.5 54.5h65q-33 -201 -196 -201q-74 0 -129 28t-85 41t-65 13q-72 0 -102 -80h-64z" />
<glyph unicode="&#x2000;" horiz-adv-x="839" />
<glyph unicode="&#x2001;" horiz-adv-x="1679" />
<glyph unicode="&#x2002;" horiz-adv-x="839" />
<glyph unicode="&#x2003;" horiz-adv-x="1679" />
<glyph unicode="&#x2004;" horiz-adv-x="559" />
<glyph unicode="&#x2005;" horiz-adv-x="419" />
<glyph unicode="&#x2006;" horiz-adv-x="279" />
<glyph unicode="&#x2007;" horiz-adv-x="279" />
<glyph unicode="&#x2008;" horiz-adv-x="209" />
<glyph unicode="&#x2009;" horiz-adv-x="335" />
<glyph unicode="&#x200a;" horiz-adv-x="93" />
<glyph unicode="&#x2010;" horiz-adv-x="729" d="M109 530v150h512v-150h-512z" />
<glyph unicode="&#x2011;" horiz-adv-x="729" d="M109 530v150h512v-150h-512z" />
<glyph unicode="&#x2012;" horiz-adv-x="729" d="M109 530v150h512v-150h-512z" />
<glyph unicode="&#x2013;" horiz-adv-x="1249" d="M113 537v137h1024v-137h-1024z" />
<glyph unicode="&#x2014;" horiz-adv-x="2347" d="M150 537v137h2048v-137h-2048z" />
<glyph unicode="&#x2018;" horiz-adv-x="446" d="M74 973l180 436h139l-119 -436h-200z" />
<glyph unicode="&#x2019;" horiz-adv-x="432" d="M82 973l119 436h200l-180 -436h-139z" />
<glyph unicode="&#x201a;" horiz-adv-x="450" d="M23 -272l118 436h201l-180 -436h-139z" />
<glyph unicode="&#x201c;" horiz-adv-x="753" d="M74 973l180 436h139l-119 -436h-200zM381 973l180 436h139l-118 -436h-201z" />
<glyph unicode="&#x201d;" horiz-adv-x="739" d="M82 973l119 436h200l-180 -436h-139zM389 973l119 436h201l-181 -436h-139z" />
<glyph unicode="&#x201e;" horiz-adv-x="757" d="M23 -272l118 436h201l-180 -436h-139zM330 -272l119 436h200l-180 -436h-139z" />
<glyph unicode="&#x2022;" horiz-adv-x="696" d="M74 655q0 115 79.5 195t194.5 80t195 -80t80 -195t-80 -194.5t-195 -79.5t-194.5 79.5t-79.5 194.5z" />
<glyph unicode="&#x2026;" horiz-adv-x="1611" d="M109 0v209h198v-209h-198zM707 0v209h198v-209h-198zM1305 0v209h198v-209h-198z" />
<glyph unicode="&#x202f;" horiz-adv-x="335" />
<glyph unicode="&#x2039;" horiz-adv-x="620" d="M80 530l266 414h182l-280 -414l280 -413h-182z" />
<glyph unicode="&#x203a;" horiz-adv-x="620" d="M92 117l281 413l-281 414h182l267 -414l-267 -413h-182z" />
<glyph unicode="&#x205f;" horiz-adv-x="419" />
<glyph unicode="&#x20ac;" horiz-adv-x="1255" d="M86 516l45 111h127q-2 14 -2 26.5v41t4 73.5h-174l45 111h143q70 346 336 454q94 39 205 39q188 0 322 -76l-56 -139q-86 66 -245 66q-260 0 -361 -209q-31 -63 -45 -135h541l-43 -111h-514q-4 -45 -4 -74v-41q0 -12 2 -26h460l-43 -111h-407q70 -383 428 -383 q160 0 280 88l29 -147q-137 -90 -332 -90q-248 0 -393 155q-131 141 -166 377h-182z" />
<glyph unicode="&#x2122;" horiz-adv-x="1669" d="M127 1260v96h586v-96h-244v-619h-100v619h-242zM836 641v715h106l236 -314l233 314h105v-715h-101v551l-237 -305l-242 305v-551h-100z" />
<glyph unicode="&#xe000;" horiz-adv-x="1024" d="M0 0v1024h1024v-1024h-1024z" />
<glyph unicode="&#xfb01;" horiz-adv-x="1015" d="M27 889v135h176v90q0 168 100 252t279 84h12v-145h-21q-109 0 -163 -48.5t-54 -154.5v-78h527v-1024h-154v889h-373v-889h-153v889h-176zM723 1196v201h166v-201h-166z" />
<glyph unicode="&#xfb02;" horiz-adv-x="1015" d="M27 889v135h176v90q0 168 100 252t279 84h12v-145h-21q-109 0 -163 -48.5t-54 -154.5v-78h238v-135h-238v-889h-153v889h-176zM729 0v1434h154v-1434h-154z" />
<glyph unicode="&#xfb03;" horiz-adv-x="1624" d="M27 889v135h176v90q0 168 100 252t279 84h12v-145h-21q-109 0 -163 -48.5t-54 -154.5v-78h455v90q0 168 100.5 252t278.5 84h12v-145h-20q-109 0 -163 -48.5t-54 -154.5v-78h526v-1024h-154v889h-372v-889h-154v889h-455v-889h-153v889h-176zM1331 1196v201h166v-201 h-166z" />
<glyph unicode="&#xfb04;" horiz-adv-x="1624" d="M27 889v135h176v90q0 168 100 252t279 84h12v-145h-21q-109 0 -163 -48.5t-54 -154.5v-78h455v90q0 168 100.5 252t278.5 84h12v-145h-20q-109 0 -163 -48.5t-54 -154.5v-78h237v-135h-237v-889h-154v889h-455v-889h-153v889h-176zM1337 0v1434h154v-1434h-154z" />
</font>
</defs>
</svg>
